<mxfile host="65bd71144e">
    <diagram id="bvMxqJy8REenpndCrTQX" name="Page-1">
        <mxGraphModel dx="890" dy="1478" grid="1" gridSize="10" guides="1" tooltips="1" connect="1" arrows="1" fold="1" page="1" pageScale="1" pageWidth="850" pageHeight="1100" background="none" math="0" shadow="1">
            <root>
                <mxCell id="0"/>
                <mxCell id="1" parent="0"/>
                <mxCell id="8" value="Topic 202.2" style="ellipse;whiteSpace=wrap;html=1;align=center;treeFolding=1;treeMoving=1;newEdgeStyle={&quot;edgeStyle&quot;:&quot;entityRelationEdgeStyle&quot;,&quot;startArrow&quot;:&quot;none&quot;,&quot;endArrow&quot;:&quot;none&quot;,&quot;segment&quot;:10,&quot;curved&quot;:1};fillColor=#647687;fontColor=#CCCCCC;strokeColor=#314354;" parent="1" vertex="1">
                    <mxGeometry x="380" y="-400" width="130" height="60" as="geometry"/>
                </mxCell>
                <mxCell id="100" value="BIOS" style="whiteSpace=wrap;html=1;rounded=1;arcSize=50;align=center;verticalAlign=middle;strokeWidth=1;autosize=1;spacing=4;treeFolding=1;treeMoving=1;newEdgeStyle={&quot;edgeStyle&quot;:&quot;entityRelationEdgeStyle&quot;,&quot;startArrow&quot;:&quot;none&quot;,&quot;endArrow&quot;:&quot;none&quot;,&quot;segment&quot;:10,&quot;curved&quot;:1};fillColor=#647687;fontColor=#CCCCCC;strokeColor=#314354;" parent="1" vertex="1">
                    <mxGeometry x="269.9999999999999" y="-520" width="70" height="30" as="geometry"/>
                </mxCell>
                <mxCell id="108" value="" style="edgeStyle=entityRelationEdgeStyle;startArrow=none;endArrow=none;segment=10;curved=1;entryX=1;entryY=0.5;entryDx=0;entryDy=0;fillColor=#647687;strokeColor=#314354;shadow=0;fontColor=#CCCCCC;exitX=0.008;exitY=0.367;exitDx=0;exitDy=0;exitPerimeter=0;" parent="1" source="8" target="100" edge="1">
                    <mxGeometry relative="1" as="geometry">
                        <mxPoint x="410" y="-500" as="sourcePoint"/>
                        <mxPoint x="295" y="-370" as="targetPoint"/>
                    </mxGeometry>
                </mxCell>
                <mxCell id="115" value="grub" style="whiteSpace=wrap;html=1;rounded=1;arcSize=50;align=center;verticalAlign=middle;strokeWidth=1;autosize=1;spacing=4;treeFolding=1;treeMoving=1;newEdgeStyle={&quot;edgeStyle&quot;:&quot;entityRelationEdgeStyle&quot;,&quot;startArrow&quot;:&quot;none&quot;,&quot;endArrow&quot;:&quot;none&quot;,&quot;segment&quot;:10,&quot;curved&quot;:1};fillColor=#647687;fontColor=#CCCCCC;strokeColor=#314354;" parent="1" vertex="1">
                    <mxGeometry x="440" y="-560" width="70" height="30" as="geometry"/>
                </mxCell>
                <mxCell id="116" value="" style="edgeStyle=entityRelationEdgeStyle;startArrow=none;endArrow=none;segment=10;curved=1;exitX=0.5;exitY=0;exitDx=0;exitDy=0;fillColor=#647687;strokeColor=#314354;shadow=0;fontColor=#CCCCCC;entryX=0.5;entryY=1;entryDx=0;entryDy=0;" parent="1" source="8" target="115" edge="1">
                    <mxGeometry relative="1" as="geometry">
                        <mxPoint x="445" y="-520" as="sourcePoint"/>
                        <mxPoint x="807" y="-507" as="targetPoint"/>
                    </mxGeometry>
                </mxCell>
                <mxCell id="118" value="update-grub" style="whiteSpace=wrap;html=1;rounded=1;arcSize=50;align=center;verticalAlign=middle;strokeWidth=1;autosize=1;spacing=4;treeFolding=1;treeMoving=1;newEdgeStyle={&quot;edgeStyle&quot;:&quot;entityRelationEdgeStyle&quot;,&quot;startArrow&quot;:&quot;none&quot;,&quot;endArrow&quot;:&quot;none&quot;,&quot;segment&quot;:10,&quot;curved&quot;:1};fillColor=#647687;fontColor=#CCCCCC;strokeColor=#314354;" parent="1" vertex="1">
                    <mxGeometry x="570" y="-450" width="110" height="30" as="geometry"/>
                </mxCell>
                <mxCell id="119" value="" style="edgeStyle=entityRelationEdgeStyle;startArrow=none;endArrow=none;segment=10;curved=1;exitX=1;exitY=0.367;exitDx=0;exitDy=0;fillColor=#647687;strokeColor=#314354;shadow=0;fontColor=#CCCCCC;entryX=0;entryY=0.5;entryDx=0;entryDy=0;exitPerimeter=0;" parent="1" source="8" target="118" edge="1">
                    <mxGeometry relative="1" as="geometry">
                        <mxPoint x="445" y="-520" as="sourcePoint"/>
                        <mxPoint x="872" y="-457" as="targetPoint"/>
                    </mxGeometry>
                </mxCell>
                <mxCell id="124" value="UEFI" style="whiteSpace=wrap;html=1;rounded=1;arcSize=50;align=center;verticalAlign=middle;strokeWidth=1;autosize=1;spacing=4;treeFolding=1;treeMoving=1;newEdgeStyle={&quot;edgeStyle&quot;:&quot;entityRelationEdgeStyle&quot;,&quot;startArrow&quot;:&quot;none&quot;,&quot;endArrow&quot;:&quot;none&quot;,&quot;segment&quot;:10,&quot;curved&quot;:1};fillColor=#647687;fontColor=#CCCCCC;strokeColor=#314354;" parent="1" vertex="1">
                    <mxGeometry x="250" y="-310" width="70" height="30" as="geometry"/>
                </mxCell>
                <mxCell id="125" value="" style="edgeStyle=entityRelationEdgeStyle;startArrow=none;endArrow=none;segment=10;curved=1;exitX=0;exitY=0.5;exitDx=0;exitDy=0;entryX=1;entryY=0.5;entryDx=0;entryDy=0;fillColor=#647687;strokeColor=#314354;shadow=0;fontColor=#CCCCCC;" parent="1" source="8" target="124" edge="1">
                    <mxGeometry relative="1" as="geometry">
                        <mxPoint x="165" y="-360" as="sourcePoint"/>
                        <mxPoint x="-5" y="-410" as="targetPoint"/>
                    </mxGeometry>
                </mxCell>
                <mxCell id="130" value="NVMe" style="whiteSpace=wrap;html=1;rounded=1;arcSize=50;align=center;verticalAlign=middle;strokeWidth=1;autosize=1;spacing=4;treeFolding=1;treeMoving=1;newEdgeStyle={&quot;edgeStyle&quot;:&quot;entityRelationEdgeStyle&quot;,&quot;startArrow&quot;:&quot;none&quot;,&quot;endArrow&quot;:&quot;none&quot;,&quot;segment&quot;:10,&quot;curved&quot;:1};fillColor=#647687;fontColor=#CCCCCC;strokeColor=#314354;" parent="1" vertex="1">
                    <mxGeometry x="420" y="-230" width="70" height="30" as="geometry"/>
                </mxCell>
                <mxCell id="131" value="" style="edgeStyle=entityRelationEdgeStyle;startArrow=none;endArrow=none;segment=10;curved=1;entryX=0.5;entryY=0;entryDx=0;entryDy=0;fillColor=#647687;strokeColor=#314354;shadow=0;fontColor=#CCCCCC;exitX=0.5;exitY=1;exitDx=0;exitDy=0;" parent="1" source="8" target="130" edge="1">
                    <mxGeometry relative="1" as="geometry">
                        <mxPoint x="480" y="-245" as="sourcePoint"/>
                        <mxPoint x="395" y="-295" as="targetPoint"/>
                    </mxGeometry>
                </mxCell>
                <mxCell id="152" value="install-grub" style="whiteSpace=wrap;html=1;rounded=1;arcSize=50;align=center;verticalAlign=middle;strokeWidth=1;autosize=1;spacing=4;treeFolding=1;treeMoving=1;newEdgeStyle={&quot;edgeStyle&quot;:&quot;entityRelationEdgeStyle&quot;,&quot;startArrow&quot;:&quot;none&quot;,&quot;endArrow&quot;:&quot;none&quot;,&quot;segment&quot;:10,&quot;curved&quot;:1};fillColor=#647687;fontColor=#CCCCCC;strokeColor=#314354;" parent="1" vertex="1">
                    <mxGeometry x="580" y="-320" width="100" height="30" as="geometry"/>
                </mxCell>
                <mxCell id="153" value="" style="edgeStyle=entityRelationEdgeStyle;startArrow=none;endArrow=none;segment=10;curved=1;exitX=1;exitY=0.5;exitDx=0;exitDy=0;fillColor=#647687;strokeColor=#314354;shadow=0;fontColor=#CCCCCC;entryX=0;entryY=0.5;entryDx=0;entryDy=0;" parent="1" source="8" target="152" edge="1">
                    <mxGeometry relative="1" as="geometry">
                        <mxPoint x="540" y="-257.98" as="sourcePoint"/>
                        <mxPoint x="902" y="-337" as="targetPoint"/>
                    </mxGeometry>
                </mxCell>
                <mxCell id="156" value="MBR" style="whiteSpace=wrap;html=1;rounded=1;arcSize=50;align=center;verticalAlign=middle;strokeWidth=1;autosize=1;spacing=4;treeFolding=1;treeMoving=1;newEdgeStyle={&quot;edgeStyle&quot;:&quot;entityRelationEdgeStyle&quot;,&quot;startArrow&quot;:&quot;none&quot;,&quot;endArrow&quot;:&quot;none&quot;,&quot;segment&quot;:10,&quot;curved&quot;:1};fillColor=#647687;fontColor=#CCCCCC;strokeColor=#314354;" parent="1" vertex="1">
                    <mxGeometry x="179.9999999999999" y="-410" width="70" height="30" as="geometry"/>
                </mxCell>
                <mxCell id="157" value="" style="edgeStyle=entityRelationEdgeStyle;startArrow=none;endArrow=none;segment=10;curved=1;entryX=1;entryY=0.5;entryDx=0;entryDy=0;fillColor=#647687;strokeColor=#314354;shadow=0;fontColor=#CCCCCC;exitX=0;exitY=0.333;exitDx=0;exitDy=0;exitPerimeter=0;" parent="1" source="8" target="156" edge="1">
                    <mxGeometry relative="1" as="geometry">
                        <mxPoint x="225" y="-430" as="sourcePoint"/>
                        <mxPoint x="140" y="-430" as="targetPoint"/>
                    </mxGeometry>
                </mxCell>
            </root>
        </mxGraphModel>
    </diagram>
</mxfile>